<svg width="320" height="320" viewBox="0 0 320 320" fill="none" xmlns="http://www.w3.org/2000/svg">
<path d="M0 0C105.6 0 211.2 0 320 0C320 105.6 320 211.2 320 320C214.4 320 108.8 320 0 320C0 214.4 0 108.8 0 0Z" fill="#020202"/>
<path d="M159.583 41.6667C159.858 41.6667 160.133 41.6667 160.417 41.6667C160.503 41.9814 160.59 42.2962 160.679 42.6205C161.57 45.8047 162.534 48.96 163.542 52.1094C163.734 52.7107 163.734 52.7107 163.93 53.3241C164.286 54.4384 164.643 55.5525 165 56.6667C166.261 60.6116 167.377 64.5924 168.476 68.5849C169.034 70.5979 169.601 72.6005 170.264 74.5817C170.416 75.0379 170.416 75.0379 170.571 75.5033C170.839 76.2947 171.117 77.083 171.395 77.8711C171.708 79.3623 171.579 79.9414 170.833 81.25C168.914 83.3066 168.914 83.3066 167.522 83.3707C166.681 83.3583 165.841 83.3458 165 83.3334C165.04 83.726 165.079 84.1187 165.12 84.5232C166.123 94.5273 166.972 104.539 167.747 114.563C168.619 125.836 169.674 137.086 170.833 148.333C171.878 148.147 172.922 147.959 173.966 147.769C174.258 147.717 174.549 147.665 174.849 147.612C180.87 146.508 189.74 144.01 194.167 139.583C194.211 138.606 194.225 137.643 194.219 136.665C194.218 136.353 194.217 136.041 194.215 135.719C194.183 131.647 193.987 127.58 193.81 123.512C193.425 114.557 193.209 105.629 193.333 96.6667C192.951 96.5853 192.951 96.5853 192.56 96.5023C191.296 96.1454 190.771 95.6395 190 94.5834C190.088 92.1767 191.258 90.3446 192.422 88.3073C192.626 87.9437 192.83 87.5801 193.04 87.2054C193.69 86.0515 194.345 84.9007 195 83.75C195.414 83.0172 195.827 82.2842 196.24 81.5511C198.363 77.7979 200.53 74.0706 202.734 70.3646C202.943 70.0115 203.152 69.6583 203.367 69.2945C203.66 68.8042 203.66 68.8042 203.96 68.3041C204.217 67.8737 204.217 67.8737 204.478 67.4347C205.003 66.6615 205.582 66.0669 206.25 65.4167C206.249 65.8131 206.247 66.2096 206.246 66.618C206.2 83.7512 206.164 100.845 208.073 117.891C208.105 118.177 208.137 118.463 208.17 118.758C208.607 122.648 209.09 126.533 209.583 130.417C209.825 132.33 210.062 134.244 210.298 136.159C210.378 136.782 210.378 136.782 210.459 137.418C210.875 140.793 210.97 144.102 210.833 147.5C201.41 152.5 191.972 157.5 182.31 162.023C180.447 162.896 178.607 163.812 176.771 164.74C170.459 167.917 170.459 167.917 168.75 167.917C168.841 169.492 168.917 170.523 169.922 171.771C171.915 172.865 174.036 173.284 176.25 173.75C176.099 173.928 175.947 174.106 175.791 174.289C170.984 180.267 169.995 187.367 168.984 194.74C168.895 195.381 168.805 196.023 168.715 196.665C168.444 198.609 168.179 200.555 167.917 202.5C167.877 202.794 167.837 203.088 167.796 203.391C166.945 209.709 166.161 216.032 165.476 222.369C165.145 225.417 164.783 228.459 164.404 231.501C163.468 239.025 162.7 246.561 161.962 254.106C161.482 258.991 160.951 263.871 160.417 268.75C160.142 268.75 159.867 268.75 159.583 268.75C159.129 265.29 158.716 261.833 158.385 258.359C158.013 254.482 157.537 250.619 157.056 246.753C156.569 242.831 156.127 238.906 155.723 234.974C155.678 234.538 155.633 234.102 155.587 233.653C155.366 231.496 155.148 229.34 154.933 227.183C154.505 222.936 154.006 218.713 153.379 214.49C153.005 211.945 152.691 209.399 152.412 206.842C152.373 206.479 152.333 206.116 152.292 205.742C152.212 205.003 152.131 204.265 152.051 203.526C151.453 198.077 150.838 192.645 149.766 187.266C149.688 186.873 149.611 186.481 149.531 186.076C148.79 182.609 147.677 179.32 145.573 176.432C145.327 176.088 145.081 175.744 144.827 175.389C144.224 174.541 144.224 174.541 143.333 174.167C143.333 173.892 143.333 173.617 143.333 173.333C143.67 173.283 144.007 173.232 144.354 173.18C144.799 173.111 145.244 173.041 145.703 172.969C146.143 172.901 146.583 172.833 147.036 172.764C148.249 172.517 149.287 172.165 150.417 171.667C150.554 170.567 150.692 169.467 150.833 168.333C150.54 168.199 150.247 168.065 149.945 167.927C148.574 167.3 147.204 166.671 145.833 166.042C145.142 165.726 145.142 165.726 144.437 165.404C141.067 163.854 137.745 162.221 134.433 160.553C132.362 159.512 130.287 158.48 128.213 157.446C126.593 156.638 124.974 155.83 123.355 155.022C121.956 154.323 120.557 153.625 119.157 152.928C117.785 152.244 116.413 151.559 115.041 150.874C114.522 150.614 114.002 150.355 113.483 150.097C112.763 149.739 112.045 149.379 111.327 149.02C110.714 148.715 110.714 148.715 110.089 148.403C109.167 147.917 109.167 147.917 108.75 147.5C108.473 144.039 108.937 140.558 109.32 137.122C109.432 136.098 109.539 135.073 109.646 134.048C110.014 130.539 110.413 127.038 110.901 123.543C113.593 104.105 113.348 84.586 113.333 65C113.608 65 113.883 65 114.167 65C114.315 65.2723 114.462 65.5445 114.615 65.825C116.218 68.772 117.841 71.7075 119.479 74.6354C119.734 75.0903 119.988 75.5452 120.25 76.0138C121.717 78.6283 123.207 81.2255 124.74 83.8021C126.061 86.0349 127.366 88.2752 128.62 90.5469C128.84 90.9325 128.84 90.9325 129.064 91.3259C129.621 92.3533 130.015 93.0981 129.941 94.2822C129.38 95.4078 128.523 95.9684 127.5 96.6667C127.225 96.6667 126.95 96.6667 126.667 96.6667C126.669 97.0214 126.671 97.3762 126.673 97.7417C126.685 101.239 126.615 104.725 126.484 108.219C126.446 109.306 126.408 110.392 126.37 111.478C126.311 113.151 126.251 114.825 126.189 116.498C126.071 119.762 125.969 123.026 125.884 126.291C125.85 127.391 125.809 128.488 125.755 129.586C125.678 131.194 125.624 132.802 125.573 134.411C125.543 134.896 125.513 135.381 125.482 135.881C125.381 138.383 125.381 138.383 126.633 140.43C127.593 141.081 128.532 141.597 129.583 142.083C129.843 142.223 130.103 142.363 130.371 142.507C135.155 145.048 140.289 146.822 145.614 147.767C145.917 147.822 146.221 147.878 146.534 147.935C147.272 148.069 148.011 148.202 148.75 148.333C150.18 136.593 151.137 124.831 152.028 113.039C152.314 109.252 152.604 105.465 152.895 101.679C152.995 100.379 153.093 99.0783 153.19 97.7781C153.557 92.95 154.01 88.1414 154.583 83.3334C153.785 83.3443 153.785 83.3443 152.97 83.3554C151.662 83.3733 150.838 83.3726 149.818 82.474C148.525 80.9918 148.446 80.2754 148.333 78.3334C148.553 77.2633 148.8 76.3147 149.141 75.2865C149.236 74.9813 149.331 74.6761 149.43 74.3616C149.642 73.6833 149.856 73.0058 150.073 72.3289C150.422 71.2344 150.759 70.137 151.094 69.0381C153.878 59.9004 156.742 50.7869 159.583 41.6667Z" fill="#FBFBFB"/>
</svg>
